<svg xmlns="http://www.w3.org/2000/svg" viewBox="0 0 1024 1024"><g stroke-width="2" fill="none" stroke="#7c898b"><path vector-effect="non-scaling-stroke" d="M911.53 436.25c-7.01-34.6-18.31-67.97-34.28-100.74q-4.19-8.58-9.04-17.14-33.53-59.16-83.13-103.93-41.67-37.61-92.89-63.16-45.04-22.47-94.68-34.52c-22.75-5.52-46.2-8.67-69.75-10.52q-28.61-2.24-59.08.77-27.74 2.75-52.98 8.42-19.57 4.4-42.48 11.52-9.87 3.06-19.14 6.74-45.1 17.91-79.57 40.11-59.53 38.35-103.67 94.82-27.48 35.14-46.51 75.96c-10.59 22.72-19.24 46.25-25.03 70.5q-7.13 29.84-10.04 58.89c-1.75 17.52-1.95 35.2-1.69 53.02q.73 49.62 13.85 98.29 7.76 28.75 18.96 53.76 12.25 27.32 19.37 39.28 34.3 57.5 85.23 103.2c18.25 16.37 38.26 30.47 58.96 43.41q8.6 5.38 17.22 10.01 56.42 30.26 119.04 43.8c14 3.03 28.9 5.1 43.09 6.71q28.32 3.2 59.07 1.51 68.17-3.75 131.9-28.15c11.47-4.39 23.6-10.08 35.05-15.62q28.82-13.95 55.91-33.53 41.64-30.1 74.44-68.03 15.37-17.76 26.98-33.98 22.89-31.98 38.66-69.09c3.26-7.68 6.81-15.41 9.54-23.28q14.87-42.83 21.26-90.74 3.19-23.97 3.09-50.17-.16-41.09-7.66-78.12"/><path vector-effect="non-scaling-stroke" d="M664.81 181.68q-24.18-11.76-52.99-20.53-16.24-4.95-28.89-7.73c-37.82-8.34-78.38-11.19-117.34-6.71q-25.86 2.97-43.53 7.05-22.93 5.29-49.33 14.6-8.97 3.17-18.97 7.55-50.73 22.21-93.25 57.5-25.53 21.19-45.41 44.09-15.67 18.05-31.64 42.43-29.71 45.36-43.95 97.34-4.71 17.18-8.59 37.95-4.08 21.92-4.36 42.55-.3 22.97.01 31.26 3.32 86.98 44.37 162.68 13.58 25.05 29.15 45.12 23.64 30.49 54.88 58.06 7.18 6.33 15.38 12.54 13.87 10.5 24.6 17.36 19.7 12.6 45.34 25.52c21.41 10.78 44.53 18.76 68.15 25.45 19.78 5.61 40.31 8.88 60.82 11.28q37.27 4.37 77.17-.81c68.88-8.94 134.99-36.58 189.19-79.24q46.46-36.56 79.61-83.63 17.94-25.47 33.1-59.31 3.79-8.47 7.5-18.62 4.25-11.61 6.72-19.43c22.24-70.37 23.45-147.89 1-218.29Q849 362.09 823.9 321.5c-3.79-6.13-8.32-12.12-12.47-18.17q-4.8-7-9.84-13.31-45.51-57.08-109.15-93.71-13.32-7.66-27.63-14.63"/><path vector-effect="non-scaling-stroke" d="M671.88 539.81c3.4-3.49 6.42-7.33 9.16-11.38 10.24-15.16 18.82-32.08 24.1-49.84q5.02-16.87 7.26-32.46 1.78-12.35 1.44-28.34-.61-28.79-8.7-53.6-11.31-34.65-33.94-64.54-14.3-18.9-35.89-36.06-7.91-6.29-17.23-11.88-17.38-10.43-32.65-16.92c-17.61-7.5-36.58-12.11-55.79-14.91q-31.85-4.64-62.23.97-15 2.77-26.99 6.38c-30.39 9.16-59.64 25.09-83.14 46.75q-37.11 34.2-54.61 83.23c-7.02 19.67-11.32 41.19-11.03 61.77.08 6.27.08 12.96.55 18.59 3.07 37.15 16.71 73.29 40.63 102.08a.26.26 0 0 1-.22.43q-17.9-1.24-33.34-6.67c-15.21-5.36-26.81-13.77-36.09-26.21q-4.24-5.69-8.74-11.14c-6.31-7.65-15.9-10.32-24.1-3.92q-6.41 4.98-7.02 13.97c-.34 4.9 2.49 9.96 5.38 13.96q7.48 10.31 15.85 20c16.85 19.51 40.72 29.24 66.69 34.01q1.73.31 3.6.28a.63.62-80.9 0 1 .6.84q-5.08 14.69-7.74 29.86-.84 4.82-2.73 9.5-2.04 5.07-7.08 7.42a1.49 1.49 0 0 1-1.87-.52c-6.99-10.37-16.68-18.15-28.75-21.11q-23.45-5.75-41.81 7.97c-12.58 9.41-20.55 23.91-21.16 39.88q-.78 20.65 10.4 37.33 5.95 8.87 15.7 17.94c10.4 9.68 24.45 16.44 37.48 19.54q16.89 4.03 36.32 2.28c9.99-.9 19.68-3.78 28.73-7.59a3.05 3.02 42.3 0 1 2.12-.09c12.63 4.08 26.07 4.96 39.67 4.27q34.93-1.74 62.24-23.71 4.55-3.66 9.2-7.63.61-.52.61.28-.09 19.51.01 38.04c.1 20.35 5.7 39.03 18.37 55.74a.59.59 0 0 1-.46.95l-27.42.26a1.17 1.17 0 0 1-1.1-.73c-4.74-12-14.78-22.01-27.33-24.74-15.23-3.31-30.64 2.1-39.81 14.66-7.68 10.52-9.03 26.63-4.19 38.52 5.97 14.67 18.75 23.37 34.78 23.71 16.93.36 30.38-10.57 35.98-26.04q.56-1.55 2.41-1.53 19.62.14 38.91.13a.62.61-8.4 0 0 .59-.79q-1.48-5.02-.95-10a.56.56 0 0 1 .91-.38q25.13 19.65 56.52 17.52 8.65-.58 19.28-4.72c4.52-1.75 9.32-1.62 14.02-1.32a1 .98 80.1 0 1 .84.6c4.7 10.99 12.43 19.81 23.34 23.98 20.66 7.88 43.25-3.94 49.52-24.74q4.85-16.09-3.13-30.87c-7.15-13.25-21.81-21.37-37.11-19.57-15.09 1.77-26.94 11.69-32.04 25.88a.53.52 9.2 0 1-.5.35l-9.67.06q-.52 0-.7-.49-.3-.82-1.05-1.3-4.47-2.85-8.91-4.58a2.25 2.21 48.3 0 0-1.32-.09q-9.91 2.36-18.38 1.76-27.61-1.96-39.59-27.12-5.2-10.91-5.23-24.47-.16-69.62.08-147 .02-7.09-.25-8.99c-1.32-9.35-11.45-17.5-21.21-15.45-7.43 1.56-13.33 7.63-14.29 15.36q-.37 2.98-.41 5.96-.12 11.18-.01 23.25.09 9.42-1.12 15.94c-2.7 14.66-10.9 29.86-20.81 40.25q-12.12 12.71-27.18 20c-4.92 2.39-10.26 3.73-15.51 5.16q-1.18.32-.44-.66c1.23-1.62 2.94-2.91 4.23-4.4q12.36-14.2 20.17-31.58c.5-1.12 1.2-1.7 1.22-3.11q.01-.06.05-.1l.39-.39q.21-.21.32-.5 4.84-12.14 6.78-20.86 3.12-14.04 3.42-33.16.18-11.13-2.22-19.98c-5.36-19.82-21.47-38.24-42.79-41.26a1.79 1.75 71 0 1-1.03-.52q-12.51-12.9-20.4-26.18-26.85-45.12-21.63-96.07c5.23-50.98 35.81-97.2 79.43-123.83 22.73-13.87 48.28-22.59 74.69-24.75q9.45-.77 17.18-.84c24.45-.2 50.48 4.79 73.17 15.17q52.32 23.92 80.59 73.63c9.05 15.91 15.15 33.87 18.08 51.66q6.41 38.97-7.08 76c-7.61 20.88-18.43 39.18-34.63 54.75q-.76.73-1.74.86c-2.29.29-4.71.48-6.89 1.11-18.13 5.22-30.89 17.02-37.38 34.42q-4.53 12.14-4.34 28.26.66 54.19 37.27 92.35.49.5-.21.48-1.78-.04-3.52-.46-30.41-7.45-48.32-33.38-9.44-13.67-12.77-29.86-1.69-8.17-1.53-19.74.18-12.46.04-23.86-.16-13.41-11.35-18.12c-7.57-3.2-13.24-.72-19.3 3.7-4.65 3.38-6.34 10.58-6.33 16.21q.11 67.38-.02 137.45-.01 6.22.65 11.29c.96 7.38 5.36 15.39 11.28 20.22q12.86 10.52 29.2 2.67 1.04-.5 1.06-1.63.15-8.36-.04-16.01a1.4 1.38 16.1 0 0-.63-1.12c-4.81-3.14-6.58-10.51-6.68-16.02q-.23-12.73-.49-26.3-.03-1.13.8-.36c4.64 4.33 9.21 8.34 14.47 12q32.48 22.64 73.32 21.05 13.63-.53 25.52-4.33.56-.18 1.11.03c14.48 5.54 29.49 8.18 45.55 8.03q18.79-.18 35.77-7.72 34.56-15.35 45.46-49.43 4.06-12.66 1.94-27.43c-.28-1.92-1.08-3.7-1.68-5.52-8.35-25.4-30.38-40.93-57.31-36.28q-8.29 1.43-14.28 5.25c-6.61 4.21-12.61 9.54-16.59 16.4a1.84 1.83 27.2 0 1-2.34.75q-3.67-1.66-5.1-5.18-1.54-3.75-1.78-5.02-1.39-7.24-2.72-14.4c-1.55-8.31-3.41-14.73-6.6-21.8a.56.55 71.9 0 1 .39-.78c2.5-.55 5.1-.53 7.7-.84q12.06-1.46 27.71-7.24 22.16-8.17 37.94-24.81 12.59-13.27 22.93-28.47c2.21-3.24 3.77-6.82 2.39-10.8-3.44-9.89-4.4-19.69 6.36-24.76 7.34-3.46 14.68 1.66 14.69 9.61l.02 67.48a1.01 1-19.3 0 1-.4.82c-1.46 1.11-3.13 1.97-4.46 3.22-10.09 9.52-10.7 24.44-1.61 34.67 5.84 6.57 15.28 10.45 24.14 8.46q13.32-3.01 19-15.59c5.01-11.1.63-23.7-9.27-30.2a1.25 1.23 16.8 0 1-.57-1.04q-.15-35.91-.13-71.47 0-9.99-4.84-16.78-11.29-15.82-31.64-16.16c-16.06-.27-31.57 9.46-38.15 24.01-1.93 4.26-2.61 9.09-3.26 13.67-.38 2.64-1.55 4.36-3.03 6.43-9.64 13.51-20.14 26.98-34.53 34.16q-21.22 10.57-44.81 11.42-1.11.04-.33-.76"/><path vector-effect="non-scaling-stroke" d="M264.46 334.63q1.25 1.61 2.4 3.34c4.04 6.07 10.47 10.81 17.88 6.76 8.4-4.59 10.02-14.35 3.22-21.15q-14.52-14.53-28.49-28.46c-5.71-5.69-13.56-5.53-19.03.14q-13.14 13.65-26.9 27.87c-4.89 5.06-6.72 11.57-2.07 17.67 3.1 4.05 8.65 6.63 13.74 4.89 4.55-1.55 8.36-6.17 11.3-10.44q.35-.49.91-.6.45-.1.45.37l-.19 89.81a.67.67 0 0 1-.67.67q-22.55-.04-42.92.07-8.23.04-13.06 4.79c-5.41 5.32-6.3 11.16-6.32 18.74q-.12 51.07-.15 102.38c0 1.55.15 2.76-1.35 3.63-18.64 10.75-19.24 36.28-2.9 49.35 9.13 7.3 22.68 9.07 32.87 2.46q8.03-5.2 12.27-13.36c7.86-15.11-.04-32.05-14.01-39.65q-.99-.54-.99-1.66l-.22-100.69a.22.22 0 0 1 .22-.22q20.23.06 38.53.32 9.85.15 13.33-1.27c7.72-3.15 11.6-9.59 11.58-17.7-.04-33.34.19-66.03-.06-97.84q-.01-1.04.63-.22m505.61-.37q.72.43 1.18 1.17c4.2 6.77 11.52 13.71 19.94 9.38 7.21-3.7 9.78-12.55 4.48-19.17q-1.32-1.64-2.5-2.82-12.89-12.81-25.74-25.52c-4.9-4.85-9.7-8.25-16.6-5.32q-3.07 1.29-6.78 5.3-10.01 10.81-22.54 22.32c-2.78 2.56-5.73 5.88-7.25 9.35-2.61 5.93.05 11.62 5.13 15.21 5.62 3.96 12.56 2.04 17.07-2.62q2.77-2.87 5.51-6.6 1.44-1.96 1.55.48.15 3.24.18 6.26.29 28.21.23 56.93-.02 6.36 1.07 10.04c1.87 6.33 8 11.55 14.95 11.57q13.7.03 29 .12 7.55.05 11.71-5.89c5.26-7.53.77-15.94-6.49-19.48q-3.14-1.54-8.16-1.38-8.57.28-15.53.16-.51-.01-.51-.51l-.34-58.72a.3.29-75.3 0 1 .44-.26M447.854 469.287a28.1 27.79 34.8 0 0-7.214-38.857 28.1 27.79 34.8 0 0-38.934 6.783 28.1 27.79 34.8 0 0 7.214 38.857 28.1 27.79 34.8 0 0 38.934-6.783m158.428-11.347a27.97 27.89 9.8 0 0-22.815-32.243 27.97 27.89 9.8 0 0-32.309 22.722 27.97 27.89 9.8 0 0 22.815 32.244 27.97 27.89 9.8 0 0 32.309-22.722M474.28 480.27c7.8 10.71 20.13 17.27 33.34 14.32q14.58-3.24 22.1-16.45 5.11-8.95-1.25-16.1c-4.23-4.75-11.78-4.57-16.09-.08-2.79 2.91-3.57 7.58-7.95 8.64-6.72 1.61-9.22-2.66-12.85-7.04-5.85-7.06-16.35-6.98-20.07 2.1-2.24 5.49-.5 10.12 2.77 14.61M289.2 658.39c-11.07-1.12-18.41-7.07-23.73-16.8-5.45-9.95-16.67-8.93-22.41-.18-4.58 6.96-3.79 15.19.21 22.4 7.61 13.69 21.14 22.61 36.54 25.07q14.96 2.38 27.86-.26 22.52-4.61 39.01-19.75 29.92-27.47 35.26-67.6 1.5-11.28.38-20.19-.98-7.76-6.21-12.77c-6.8-6.5-16.07-2.85-20.5 4.19-4.12 6.55-6.56 14.59-8.61 22.25-2.14 8.02-2.98 16.22-5.19 24.42q-4.76 17.69-17.61 28.98c-9.64 8.47-22.14 11.55-35 10.24m378.81-18.48c-6.7-9.26-9.44-19.25-11.52-31.09q-1.98-11.22-2.3-12.64c-2.26-10-5.77-25.6-16.43-30.21q-6.08-2.63-11.88 2.34-6.84 5.86-7.59 16.26c-.98 13.65.92 28.62 5.99 41.48q10.75 27.29 32.8 45.71 22.97 19.2 52.61 18.39 21.02-.58 35.69-13.34c11.03-9.59 20.29-25.75 8.71-38.34-4.56-4.96-11.56-5.71-16.48-1.21-2.16 1.98-3.09 4.54-4.57 6.94-5.95 9.59-15.84 14.1-27.3 14.37-15.63.37-28.75-6.25-37.73-18.66M414.38 798a14.08 14.08 0 0 0-14.08-14.08A14.08 14.08 0 0 0 386.22 798a14.08 14.08 0 0 0 14.08 14.08A14.08 14.08 0 0 0 414.38 798m200.857 8.701a12.38 12.38 0 0 0-.245-17.506l-1.505-1.464a12.38 12.38 0 0 0-17.506.245l-1.618 1.663a12.38 12.38 0 0 0 .245 17.506l1.505 1.464a12.38 12.38 0 0 0 17.506-.245l1.618-1.663"/></g><path fill="#f7fbfe" d="M0 0h1024v1024H0V0Zm911.53 436.25c-7.01-34.6-18.31-67.97-34.28-100.74q-4.19-8.58-9.04-17.14-33.53-59.16-83.13-103.93-41.67-37.61-92.89-63.16-45.04-22.47-94.68-34.52c-22.75-5.52-46.2-8.67-69.75-10.52q-28.61-2.24-59.08.77-27.74 2.75-52.98 8.42-19.57 4.4-42.48 11.52-9.87 3.06-19.14 6.74-45.1 17.91-79.57 40.11-59.53 38.35-103.67 94.82-27.48 35.14-46.51 75.96c-10.59 22.72-19.24 46.25-25.03 70.5q-7.13 29.84-10.04 58.89c-1.75 17.52-1.95 35.2-1.69 53.02q.73 49.62 13.85 98.29 7.76 28.75 18.96 53.76 12.25 27.32 19.37 39.28 34.3 57.5 85.23 103.2c18.25 16.37 38.26 30.47 58.96 43.41q8.6 5.38 17.22 10.01 56.42 30.26 119.04 43.8c14 3.03 28.9 5.1 43.09 6.71q28.32 3.2 59.07 1.51 68.17-3.75 131.9-28.15c11.47-4.39 23.6-10.08 35.05-15.62q28.82-13.95 55.91-33.53 41.64-30.1 74.44-68.03 15.37-17.76 26.98-33.98 22.89-31.98 38.66-69.09c3.26-7.68 6.81-15.41 9.54-23.28q14.87-42.83 21.26-90.74 3.19-23.97 3.09-50.17-.16-41.09-7.66-78.12Z"/><path fill="#001617" d="M911.53 436.25q7.5 37.03 7.66 78.12.1 26.2-3.09 50.17-6.39 47.91-21.26 90.74c-2.73 7.87-6.28 15.6-9.54 23.28q-15.77 37.11-38.66 69.09-11.61 16.22-26.98 33.98-32.8 37.93-74.44 68.03-27.09 19.58-55.91 33.53c-11.45 5.54-23.58 11.23-35.05 15.62q-63.73 24.4-131.9 28.15-30.75 1.69-59.07-1.51c-14.19-1.61-29.09-3.68-43.09-6.71q-62.62-13.54-119.04-43.8-8.62-4.63-17.22-10.01c-20.7-12.94-40.71-27.04-58.96-43.41q-50.93-45.7-85.23-103.2-7.12-11.96-19.37-39.28-11.2-25.01-18.96-53.76-13.12-48.67-13.85-98.29c-.26-17.82-.06-35.5 1.69-53.02q2.91-29.05 10.04-58.89c5.79-24.25 14.44-47.78 25.03-70.5q19.03-40.82 46.51-75.96 44.14-56.47 103.67-94.82 34.47-22.2 79.57-40.11 9.27-3.68 19.14-6.74 22.91-7.12 42.48-11.52 25.24-5.67 52.98-8.42 30.47-3.01 59.08-.77c23.55 1.85 47 5 69.75 10.52q49.64 12.05 94.68 34.52 51.22 25.55 92.89 63.16 49.6 44.77 83.13 103.93 4.85 8.56 9.04 17.14c15.97 32.77 27.27 66.14 34.28 100.74ZM664.81 181.68q-24.18-11.76-52.99-20.53-16.24-4.95-28.89-7.73c-37.82-8.34-78.38-11.19-117.34-6.71q-25.86 2.97-43.53 7.05-22.93 5.29-49.33 14.6-8.97 3.17-18.97 7.55-50.73 22.21-93.25 57.5-25.53 21.19-45.41 44.09-15.67 18.05-31.64 42.43-29.71 45.36-43.95 97.34-4.71 17.18-8.59 37.95-4.08 21.92-4.36 42.55-.3 22.97.01 31.26 3.32 86.98 44.37 162.68 13.58 25.05 29.15 45.12 23.64 30.49 54.88 58.06 7.18 6.33 15.38 12.54 13.87 10.5 24.6 17.36 19.7 12.6 45.34 25.52c21.41 10.78 44.53 18.76 68.15 25.45 19.78 5.61 40.31 8.88 60.82 11.28q37.27 4.37 77.17-.81c68.88-8.94 134.99-36.58 189.19-79.24q46.46-36.56 79.61-83.63 17.94-25.47 33.1-59.31 3.79-8.47 7.5-18.62 4.25-11.61 6.72-19.43c22.24-70.37 23.45-147.89 1-218.29Q849 362.09 823.9 321.5c-3.79-6.13-8.32-12.12-12.47-18.17q-4.8-7-9.84-13.31-45.51-57.08-109.15-93.71-13.32-7.66-27.63-14.63Z"/><path fill="#f7fbfe" d="M664.81 181.68q14.31 6.97 27.63 14.63 63.64 36.63 109.15 93.71 5.04 6.31 9.84 13.31c4.15 6.05 8.68 12.04 12.47 18.17q25.1 40.59 39.65 86.21c22.45 70.4 21.24 147.92-1 218.29q-2.47 7.82-6.72 19.43-3.71 10.15-7.5 18.62-15.16 33.84-33.1 59.31-33.15 47.07-79.61 83.63c-54.2 42.66-120.31 70.3-189.19 79.24q-39.9 5.18-77.17.81c-20.51-2.4-41.04-5.67-60.82-11.28-23.62-6.69-46.74-14.67-68.15-25.45q-25.64-12.92-45.34-25.52-10.73-6.86-24.6-17.36-8.2-6.21-15.38-12.54-31.24-27.57-54.88-58.06-15.57-20.07-29.15-45.12-41.05-75.7-44.37-162.68-.31-8.29-.01-31.26.28-20.63 4.36-42.55 3.88-20.77 8.59-37.95 14.24-51.98 43.95-97.34 15.97-24.38 31.64-42.43 19.88-22.9 45.41-44.09 42.52-35.29 93.25-57.5 10-4.38 18.97-7.55 26.4-9.31 49.33-14.6 17.67-4.08 43.53-7.05c38.96-4.48 79.52-1.63 117.34 6.71q12.65 2.78 28.89 7.73 28.81 8.77 52.99 20.53Zm7.07 358.13c3.4-3.49 6.42-7.33 9.16-11.38 10.24-15.16 18.82-32.08 24.1-49.84q5.02-16.87 7.26-32.46 1.78-12.35 1.44-28.34-.61-28.79-8.7-53.6-11.31-34.65-33.94-64.54-14.3-18.9-35.89-36.06-7.91-6.29-17.23-11.88-17.38-10.43-32.65-16.92c-17.61-7.5-36.58-12.11-55.79-14.91q-31.85-4.64-62.23.97-15 2.77-26.99 6.38c-30.39 9.16-59.64 25.09-83.14 46.75q-37.11 34.2-54.61 83.23c-7.02 19.67-11.32 41.19-11.03 61.77.08 6.27.08 12.96.55 18.59 3.07 37.15 16.71 73.29 40.63 102.08a.26.26 0 0 1-.22.43q-17.9-1.24-33.34-6.67c-15.21-5.36-26.81-13.77-36.09-26.21q-4.24-5.69-8.74-11.14c-6.31-7.65-15.9-10.32-24.1-3.92q-6.41 4.98-7.02 13.97c-.34 4.9 2.49 9.96 5.38 13.96q7.48 10.31 15.85 20c16.85 19.51 40.72 29.24 66.69 34.01q1.73.31 3.6.28a.63.62-80.9 0 1 .6.84q-5.08 14.69-7.74 29.86-.84 4.82-2.73 9.5-2.04 5.07-7.08 7.42a1.49 1.49 0 0 1-1.87-.52c-6.99-10.37-16.68-18.15-28.75-21.11q-23.45-5.75-41.81 7.97c-12.58 9.41-20.55 23.91-21.16 39.88q-.78 20.65 10.4 37.33 5.95 8.87 15.7 17.94c10.4 9.68 24.45 16.44 37.48 19.54q16.89 4.03 36.32 2.28c9.99-.9 19.68-3.78 28.73-7.59a3.05 3.02 42.3 0 1 2.12-.09c12.63 4.08 26.07 4.96 39.67 4.27q34.93-1.74 62.24-23.71 4.55-3.66 9.2-7.63.61-.52.61.28-.09 19.51.01 38.04c.1 20.35 5.7 39.03 18.37 55.74a.59.59 0 0 1-.46.95l-27.42.26a1.17 1.17 0 0 1-1.1-.73c-4.74-12-14.78-22.01-27.33-24.74-15.23-3.31-30.64 2.1-39.81 14.66-7.68 10.52-9.03 26.63-4.19 38.52 5.97 14.67 18.75 23.37 34.78 23.71 16.93.36 30.38-10.57 35.98-26.04q.56-1.55 2.41-1.53 19.62.14 38.91.13a.62.61-8.4 0 0 .59-.79q-1.48-5.02-.95-10a.56.56 0 0 1 .91-.38q25.13 19.65 56.52 17.52 8.65-.58 19.28-4.72c4.52-1.75 9.32-1.62 14.02-1.32a1 .98 80.1 0 1 .84.6c4.7 10.99 12.43 19.81 23.34 23.98 20.66 7.88 43.25-3.94 49.52-24.74q4.85-16.09-3.13-30.87c-7.15-13.25-21.81-21.37-37.11-19.57-15.09 1.77-26.94 11.69-32.04 25.88a.53.52 9.2 0 1-.5.35l-9.67.06q-.52 0-.7-.49-.3-.82-1.05-1.3-4.47-2.85-8.91-4.58a2.25 2.21 48.3 0 0-1.32-.09q-9.91 2.36-18.38 1.76-27.61-1.96-39.59-27.12-5.2-10.91-5.23-24.47-.16-69.62.08-147 .02-7.09-.25-8.99c-1.32-9.35-11.45-17.5-21.21-15.45-7.43 1.56-13.33 7.63-14.29 15.36q-.37 2.98-.41 5.96-.12 11.18-.01 23.25.09 9.42-1.12 15.94c-2.7 14.66-10.9 29.86-20.81 40.25q-12.12 12.71-27.18 20c-4.92 2.39-10.26 3.73-15.51 5.16q-1.18.32-.44-.66c1.23-1.62 2.94-2.91 4.23-4.4q12.36-14.2 20.17-31.58c.5-1.12 1.2-1.7 1.22-3.11q.01-.06.05-.1l.39-.39q.21-.21.32-.5 4.84-12.14 6.78-20.86 3.12-14.04 3.42-33.16.18-11.13-2.22-19.98c-5.36-19.82-21.47-38.24-42.79-41.26a1.79 1.75 71 0 1-1.03-.52q-12.51-12.9-20.4-26.18-26.85-45.12-21.63-96.07c5.23-50.98 35.81-97.2 79.43-123.83 22.73-13.87 48.28-22.59 74.69-24.75q9.45-.77 17.18-.84c24.45-.2 50.48 4.79 73.17 15.17q52.32 23.92 80.59 73.63c9.05 15.91 15.15 33.87 18.08 51.66q6.41 38.97-7.08 76c-7.61 20.88-18.43 39.18-34.63 54.75q-.76.73-1.74.86c-2.29.29-4.71.48-6.89 1.11-18.13 5.22-30.89 17.02-37.38 34.42q-4.53 12.14-4.34 28.26.66 54.19 37.27 92.35.49.5-.21.48-1.78-.04-3.52-.46-30.41-7.45-48.32-33.38-9.44-13.67-12.77-29.86-1.69-8.17-1.53-19.74.18-12.46.04-23.86-.16-13.41-11.35-18.12c-7.57-3.2-13.24-.72-19.3 3.7-4.65 3.38-6.34 10.58-6.33 16.21q.11 67.38-.02 137.45-.01 6.22.65 11.29c.96 7.38 5.36 15.39 11.28 20.22q12.86 10.52 29.2 2.67 1.04-.5 1.06-1.63.15-8.36-.04-16.01a1.4 1.38 16.1 0 0-.63-1.12c-4.81-3.14-6.58-10.51-6.68-16.02q-.23-12.73-.49-26.3-.03-1.13.8-.36c4.64 4.33 9.21 8.34 14.47 12q32.48 22.64 73.32 21.05 13.63-.53 25.52-4.33.56-.18 1.11.03c14.48 5.54 29.49 8.18 45.55 8.03q18.79-.18 35.77-7.72 34.56-15.35 45.46-49.43 4.06-12.66 1.94-27.43c-.28-1.92-1.08-3.7-1.68-5.52-8.35-25.4-30.38-40.93-57.31-36.28q-8.29 1.43-14.28 5.25c-6.61 4.21-12.61 9.54-16.59 16.4a1.84 1.83 27.2 0 1-2.34.75q-3.67-1.66-5.1-5.18-1.54-3.75-1.78-5.02-1.39-7.24-2.72-14.4c-1.55-8.31-3.41-14.73-6.6-21.8a.56.55 71.9 0 1 .39-.78c2.5-.55 5.1-.53 7.7-.84q12.06-1.46 27.71-7.24 22.16-8.17 37.94-24.81 12.59-13.27 22.93-28.47c2.21-3.24 3.77-6.82 2.39-10.8-3.44-9.89-4.4-19.69 6.36-24.76 7.34-3.46 14.68 1.66 14.69 9.61l.02 67.48a1.01 1-19.3 0 1-.4.82c-1.46 1.11-3.13 1.97-4.46 3.22-10.09 9.52-10.7 24.44-1.61 34.67 5.84 6.57 15.28 10.45 24.14 8.46q13.32-3.01 19-15.59c5.01-11.1.63-23.7-9.27-30.2a1.25 1.23 16.8 0 1-.57-1.04q-.15-35.91-.13-71.47 0-9.99-4.84-16.78-11.29-15.82-31.64-16.16c-16.06-.27-31.57 9.46-38.15 24.01-1.93 4.26-2.61 9.09-3.26 13.67-.38 2.64-1.55 4.36-3.03 6.43-9.64 13.51-20.14 26.98-34.53 34.16q-21.22 10.57-44.81 11.42-1.11.04-.33-.76ZM264.46 334.63q1.25 1.61 2.4 3.34c4.04 6.07 10.47 10.81 17.88 6.76 8.4-4.59 10.02-14.35 3.22-21.15q-14.52-14.53-28.49-28.46c-5.71-5.69-13.56-5.53-19.03.14q-13.14 13.65-26.9 27.87c-4.89 5.06-6.72 11.57-2.07 17.67 3.1 4.05 8.65 6.63 13.74 4.89 4.55-1.55 8.36-6.17 11.3-10.44q.35-.49.91-.6.45-.1.45.37l-.19 89.81a.67.67 0 0 1-.67.67q-22.55-.04-42.92.07-8.23.04-13.06 4.79c-5.41 5.32-6.3 11.16-6.32 18.74q-.12 51.07-.15 102.38c0 1.55.15 2.76-1.35 3.63-18.64 10.75-19.24 36.28-2.9 49.35 9.13 7.3 22.68 9.07 32.87 2.46q8.03-5.2 12.27-13.36c7.86-15.11-.04-32.05-14.01-39.65q-.99-.54-.99-1.66l-.22-100.69a.22.22 0 0 1 .22-.22q20.23.06 38.53.32 9.85.15 13.33-1.27c7.72-3.15 11.6-9.59 11.58-17.7-.04-33.34.19-66.03-.06-97.84q-.01-1.04.63-.22Zm505.61-.37q.72.43 1.18 1.17c4.2 6.77 11.52 13.71 19.94 9.38 7.21-3.7 9.78-12.55 4.48-19.17q-1.32-1.64-2.5-2.82-12.89-12.81-25.74-25.52c-4.9-4.85-9.7-8.25-16.6-5.32q-3.07 1.29-6.78 5.3-10.01 10.81-22.54 22.32c-2.78 2.56-5.73 5.88-7.25 9.35-2.61 5.93.05 11.62 5.13 15.21 5.62 3.96 12.56 2.04 17.07-2.62q2.77-2.87 5.51-6.6 1.44-1.96 1.55.48.15 3.24.18 6.26.29 28.21.23 56.93-.02 6.36 1.07 10.04c1.87 6.33 8 11.55 14.95 11.57q13.7.03 29 .12 7.55.05 11.71-5.89c5.26-7.53.77-15.94-6.49-19.48q-3.14-1.54-8.16-1.38-8.57.28-15.53.16-.51-.01-.51-.51l-.34-58.72a.3.29-75.3 0 1 .44-.26ZM447.854 469.287a28.1 27.79 34.8 0 0-7.214-38.857 28.1 27.79 34.8 0 0-38.934 6.783 28.1 27.79 34.8 0 0 7.214 38.857 28.1 27.79 34.8 0 0 38.934-6.783Zm158.428-11.346a27.97 27.89 9.8 0 0-22.815-32.244 27.97 27.89 9.8 0 0-32.309 22.722 27.97 27.89 9.8 0 0 22.815 32.244 27.97 27.89 9.8 0 0 32.309-22.722ZM474.28 480.27c7.8 10.71 20.13 17.27 33.34 14.32q14.58-3.24 22.1-16.45 5.11-8.95-1.25-16.1c-4.23-4.75-11.78-4.57-16.09-.08-2.79 2.91-3.57 7.58-7.95 8.64-6.72 1.61-9.22-2.66-12.85-7.04-5.85-7.06-16.35-6.98-20.07 2.1-2.24 5.49-.5 10.12 2.77 14.61Z"/><path fill="#001617" d="M671.88 539.81q-.78.8.33.76 23.59-.85 44.81-11.42c14.39-7.18 24.89-20.65 34.53-34.16 1.48-2.07 2.65-3.79 3.03-6.43.65-4.58 1.33-9.41 3.26-13.67 6.58-14.55 22.09-24.28 38.15-24.01q20.35.34 31.64 16.16 4.84 6.79 4.84 16.78-.02 35.56.13 71.47a1.25 1.23 16.8 0 0 .57 1.04c9.9 6.5 14.28 19.1 9.27 30.2q-5.68 12.58-19 15.59c-8.86 1.99-18.3-1.89-24.14-8.46-9.09-10.23-8.48-25.15 1.61-34.67 1.33-1.25 3-2.11 4.46-3.22a1.01 1-19.3 0 0 .4-.82l-.02-67.48c-.01-7.95-7.35-13.07-14.69-9.61-10.76 5.07-9.8 14.87-6.36 24.76 1.38 3.98-.18 7.56-2.39 10.8q-10.34 15.2-22.93 28.47-15.78 16.64-37.94 24.81-15.65 5.78-27.71 7.24c-2.6.31-5.2.29-7.7.84a.56.55 71.9 0 0-.39.78c3.19 7.07 5.05 13.49 6.6 21.8q1.33 7.16 2.72 14.4.24 1.27 1.78 5.02 1.43 3.52 5.1 5.18a1.84 1.83 27.2 0 0 2.34-.75c3.98-6.86 9.98-12.19 16.59-16.4q5.99-3.82 14.28-5.25c26.93-4.65 48.96 10.88 57.31 36.28.6 1.82 1.4 3.6 1.68 5.52q2.12 14.77-1.94 27.43-10.9 34.08-45.46 49.43-16.98 7.54-35.77 7.72c-16.06.15-31.07-2.49-45.55-8.03q-.55-.21-1.11-.03-11.89 3.8-25.52 4.33-40.84 1.59-73.32-21.05c-5.26-3.66-9.83-7.67-14.47-12q-.83-.77-.8.36.26 13.57.49 26.3c.1 5.51 1.87 12.88 6.68 16.02a1.4 1.38 16.1 0 1 .63 1.12q.19 7.65.04 16.01-.02 1.13-1.06 1.63-16.34 7.85-29.2-2.67c-5.92-4.83-10.32-12.84-11.28-20.22q-.66-5.07-.65-11.29.13-70.07.02-137.45c-.01-5.63 1.68-12.83 6.33-16.21 6.06-4.42 11.73-6.9 19.3-3.7q11.19 4.71 11.35 18.12.14 11.4-.04 23.86-.16 11.57 1.53 19.74 3.33 16.19 12.77 29.86 17.91 25.93 48.32 33.38 1.74.42 3.52.46.7.02.21-.48-36.61-38.16-37.27-92.35-.19-16.12 4.34-28.26c6.49-17.4 19.25-29.2 37.38-34.42 2.18-.63 4.6-.82 6.89-1.11q.98-.13 1.74-.86c16.2-15.57 27.02-33.87 34.63-54.75q13.49-37.03 7.08-76c-2.93-17.79-9.03-35.75-18.08-51.66q-28.27-49.71-80.59-73.63c-22.69-10.38-48.72-15.37-73.17-15.17q-7.73.07-17.18.84c-26.41 2.16-51.96 10.88-74.69 24.75-43.62 26.63-74.2 72.85-79.43 123.83q-5.22 50.95 21.63 96.07 7.89 13.28 20.4 26.18a1.79 1.75 71 0 0 1.03.52c21.32 3.02 37.43 21.44 42.79 41.26q2.4 8.85 2.22 19.98-.3 19.12-3.42 33.16-1.94 8.72-6.78 20.86-.11.29-.32.5l-.39.39q-.04.04-.05.1c-.02 1.41-.72 1.99-1.22 3.11q-7.81 17.38-20.17 31.58c-1.29 1.49-3 2.78-4.23 4.4q-.74.98.44.66c5.25-1.43 10.59-2.77 15.51-5.16q15.06-7.29 27.18-20c9.91-10.39 18.11-25.59 20.81-40.25q1.21-6.52 1.12-15.94-.11-12.07.01-23.25.04-2.98.41-5.96c.96-7.73 6.86-13.8 14.29-15.36 9.76-2.05 19.89 6.1 21.21 15.45q.27 1.9.25 8.99-.24 77.38-.08 147 .03 13.56 5.23 24.47 11.98 25.16 39.59 27.12 8.47.6 18.38-1.76a2.25 2.21 48.3 0 1 1.32.09q4.44 1.73 8.91 4.58.75.48 1.05 1.3.18.49.7.49l9.67-.06a.53.52 9.2 0 0 .5-.35c5.1-14.19 16.95-24.11 32.04-25.88 15.3-1.8 29.96 6.32 37.11 19.57q7.98 14.78 3.13 30.87c-6.27 20.8-28.86 32.62-49.52 24.74-10.91-4.17-18.64-12.99-23.34-23.98a1 .98 80.1 0 0-.84-.6c-4.7-.3-9.5-.43-14.02 1.32q-10.63 4.14-19.28 4.72-31.39 2.13-56.52-17.52a.56.56 0 0 0-.91.38q-.53 4.98.95 10a.62.61-8.4 0 1-.59.79q-19.29.01-38.91-.13-1.85-.02-2.41 1.53c-5.6 15.47-19.05 26.4-35.98 26.04-16.03-.34-28.81-9.04-34.78-23.71-4.84-11.89-3.49-28 4.19-38.52 9.17-12.56 24.58-17.97 39.81-14.66 12.55 2.73 22.59 12.74 27.33 24.74a1.17 1.17 0 0 0 1.1.73l27.42-.26a.59.59 0 0 0 .46-.95c-12.67-16.71-18.27-35.39-18.37-55.74q-.1-18.53-.01-38.04 0-.8-.61-.28-4.65 3.97-9.2 7.63-27.31 21.97-62.24 23.71c-13.6.69-27.04-.19-39.67-4.27a3.05 3.02 42.3 0 0-2.12.09c-9.05 3.81-18.74 6.69-28.73 7.59q-19.43 1.75-36.32-2.28c-13.03-3.1-27.08-9.86-37.48-19.54q-9.75-9.07-15.7-17.94-11.18-16.68-10.4-37.33c.61-15.97 8.58-30.47 21.16-39.88q18.36-13.72 41.81-7.97c12.07 2.96 21.76 10.74 28.75 21.11a1.49 1.49 0 0 0 1.87.52q5.04-2.35 7.08-7.42 1.89-4.68 2.73-9.5 2.66-15.17 7.74-29.86a.63.62-80.9 0 0-.6-.84q-1.87.03-3.6-.28c-25.97-4.77-49.84-14.5-66.69-34.01q-8.37-9.69-15.85-20c-2.89-4-5.72-9.06-5.38-13.96q.61-8.99 7.02-13.97c8.2-6.4 17.79-3.73 24.1 3.92q4.5 5.45 8.74 11.14c9.28 12.44 20.88 20.85 36.09 26.21q15.44 5.43 33.34 6.67a.26.26 0 0 0 .22-.43c-23.92-28.79-37.56-64.93-40.63-102.08-.47-5.63-.47-12.32-.55-18.59-.29-20.58 4.01-42.1 11.03-61.77q17.5-49.03 54.61-83.23c23.5-21.66 52.75-37.59 83.14-46.75q11.99-3.61 26.99-6.38 30.38-5.61 62.23-.97c19.21 2.8 38.18 7.41 55.79 14.91q15.27 6.49 32.65 16.92 9.32 5.59 17.23 11.88 21.59 17.16 35.89 36.06 22.63 29.89 33.94 64.54 8.09 24.81 8.7 53.6.34 15.99-1.44 28.34-2.24 15.59-7.26 32.46c-5.28 17.76-13.86 34.68-24.1 49.84-2.74 4.05-5.76 7.89-9.16 11.38ZM289.2 658.39c-11.07-1.12-18.41-7.07-23.73-16.8-5.45-9.95-16.67-8.93-22.41-.18-4.58 6.96-3.79 15.19.21 22.4 7.61 13.69 21.14 22.61 36.54 25.07q14.96 2.38 27.86-.26 22.52-4.61 39.01-19.75 29.92-27.47 35.26-67.6 1.5-11.28.38-20.19-.98-7.76-6.21-12.77c-6.8-6.5-16.07-2.85-20.5 4.19-4.12 6.55-6.56 14.59-8.61 22.25-2.14 8.02-2.98 16.22-5.19 24.42q-4.76 17.69-17.61 28.98c-9.64 8.47-22.14 11.55-35 10.24Zm378.81-18.48c-6.7-9.26-9.44-19.25-11.52-31.09q-1.98-11.22-2.3-12.64c-2.26-10-5.77-25.6-16.43-30.21q-6.08-2.63-11.88 2.34-6.84 5.86-7.59 16.26c-.98 13.65.92 28.62 5.99 41.48q10.75 27.29 32.8 45.71 22.97 19.2 52.61 18.39 21.02-.58 35.69-13.34c11.03-9.59 20.29-25.75 8.71-38.34-4.56-4.96-11.56-5.71-16.48-1.21-2.16 1.98-3.09 4.54-4.57 6.94-5.95 9.59-15.84 14.1-27.3 14.37-15.63.37-28.75-6.25-37.73-18.66ZM414.38 798a14.08 14.08 0 0 0-14.08-14.08A14.08 14.08 0 0 0 386.22 798a14.08 14.08 0 0 0 14.08 14.08A14.08 14.08 0 0 0 414.38 798Zm200.857 8.701a12.38 12.38 0 0 0-.245-17.506l-1.505-1.464a12.38 12.38 0 0 0-17.506.245l-1.618 1.663a12.38 12.38 0 0 0 .245 17.506l1.505 1.464a12.38 12.38 0 0 0 17.506-.245l1.618-1.663Z"/><path fill="#001617" d="M264.46 334.63q-.64-.82-.63.22c.25 31.81.02 64.5.06 97.84.02 8.11-3.86 14.55-11.58 17.7q-3.48 1.42-13.33 1.27-18.3-.26-38.53-.32a.22.22 0 0 0-.22.22l.22 100.69q0 1.12.99 1.66c13.97 7.6 21.87 24.54 14.01 39.65q-4.24 8.16-12.27 13.36c-10.19 6.61-23.74 4.84-32.87-2.46-16.34-13.07-15.74-38.6 2.9-49.35 1.5-.87 1.35-2.08 1.35-3.63q.03-51.31.15-102.38c.02-7.58.91-13.42 6.32-18.74q4.83-4.75 13.06-4.79 20.37-.11 42.92-.07a.67.67 0 0 0 .67-.67l.19-89.81q0-.47-.45-.37-.56.11-.91.6c-2.94 4.27-6.75 8.89-11.3 10.44-5.09 1.74-10.64-.84-13.74-4.89-4.65-6.1-2.82-12.61 2.07-17.67q13.76-14.22 26.9-27.87c5.47-5.67 13.32-5.83 19.03-.14q13.97 13.93 28.49 28.46c6.8 6.8 5.18 16.56-3.22 21.15-7.41 4.05-13.84-.69-17.88-6.76q-1.15-1.73-2.4-3.34Zm505.61-.37a.3.29-75.3 0 0-.44.26l.34 58.72q0 .5.51.51 6.96.12 15.53-.16 5.02-.16 8.16 1.38c7.26 3.54 11.75 11.95 6.49 19.48q-4.16 5.94-11.71 5.89-15.3-.09-29-.12c-6.95-.02-13.08-5.24-14.95-11.57q-1.09-3.68-1.07-10.04.06-28.72-.23-56.93-.03-3.02-.18-6.26-.11-2.44-1.55-.48-2.74 3.73-5.51 6.6c-4.51 4.66-11.45 6.58-17.07 2.62-5.08-3.59-7.74-9.28-5.13-15.21 1.52-3.47 4.47-6.79 7.25-9.35q12.53-11.51 22.54-22.32 3.71-4.01 6.78-5.3c6.9-2.93 11.7.47 16.6 5.32q12.85 12.71 25.74 25.52 1.18 1.18 2.5 2.82c5.3 6.62 2.73 15.47-4.48 19.17-8.42 4.33-15.74-2.61-19.94-9.38q-.46-.74-1.18-1.17Z"/><ellipse fill="#001617" transform="rotate(34.8 -510.771 904.362)" rx="28.1" ry="27.79"/><ellipse fill="#001617" transform="rotate(9.8 -2353.698 3601.828)" rx="27.97" ry="27.89"/><path fill="#001617" d="M507.62 494.59c-13.21 2.95-25.54-3.61-33.34-14.32-3.27-4.49-5.01-9.12-2.77-14.61 3.72-9.08 14.22-9.16 20.07-2.1 3.63 4.38 6.13 8.65 12.85 7.04 4.38-1.06 5.16-5.73 7.95-8.64 4.31-4.49 11.86-4.67 16.09.08q6.36 7.15 1.25 16.1-7.52 13.21-22.1 16.45Z"/><path fill="#f7fbfe" d="M265.47 641.59c5.32 9.73 12.66 15.68 23.73 16.8 12.86 1.31 25.36-1.77 35-10.24q12.85-11.29 17.61-28.98c2.21-8.2 3.05-16.4 5.19-24.42 2.05-7.66 4.49-15.7 8.61-22.25 4.43-7.04 13.7-10.69 20.5-4.19q5.23 5.01 6.21 12.77 1.12 8.91-.38 20.19-5.34 40.13-35.26 67.6-16.49 15.14-39.01 19.75-12.9 2.64-27.86.26c-15.4-2.46-28.93-11.38-36.54-25.07-4-7.21-4.79-15.44-.21-22.4 5.74-8.75 16.96-9.77 22.41.18Zm391.02-32.77c2.08 11.84 4.82 21.83 11.52 31.09 8.98 12.41 22.1 19.03 37.73 18.66 11.46-.27 21.35-4.78 27.3-14.37 1.48-2.4 2.41-4.96 4.57-6.94 4.92-4.5 11.92-3.75 16.48 1.21 11.58 12.59 2.32 28.75-8.71 38.34q-14.67 12.76-35.69 13.34-29.64.81-52.61-18.39-22.05-18.42-32.8-45.71c-5.07-12.86-6.97-27.83-5.99-41.48q.75-10.4 7.59-16.26 5.8-4.97 11.88-2.34c10.66 4.61 14.17 20.21 16.43 30.21q.32 1.42 2.3 12.64Z"/><circle fill="#f7fbfe" cx="400.3" cy="798" r="14.08"/><rect fill="#f7fbfe" x="-13.43" y="-13.54" transform="rotate(44.2 -680.428 1143.806)" width="26.86" height="27.08" rx="12.38"/></svg>